<svg width="14" height="18" viewBox="0 0 14 18" fill="none" xmlns="http://www.w3.org/2000/svg">
<path fill-rule="evenodd" clip-rule="evenodd" d="M2.00016 0.666626H12.0002C12.9206 0.666626 13.6668 1.41282 13.6668 2.33329V6.49996C13.6668 7.42043 12.9206 8.16663 12.0002 8.16663H2.00016C1.07969 8.16663 0.333496 7.42043 0.333496 6.49996V2.33329C0.333496 1.41282 1.07969 0.666626 2.00016 0.666626ZM12.0002 2.33329V6.49996H2.00016V2.33329H12.0002ZM2.00016 9.83329H12.0002C12.9206 9.83329 13.6668 10.5795 13.6668 11.5V15.6666C13.6668 16.5871 12.9206 17.3333 12.0002 17.3333H2.00016C1.07969 17.3333 0.333496 16.5871 0.333496 15.6666V11.5C0.333496 10.5795 1.07969 9.83329 2.00016 9.83329ZM12.0002 15.6666V11.5H2.00016V15.6666H12.0002Z" fill="#3F8CFF"/>
</svg>
